<mxfile host="65bd71144e">
    <diagram id="qtcLAqk5q4O7AAeBKUlS" name="Page-1">
        <mxGraphModel dx="3374" dy="2095" grid="0" gridSize="10" guides="1" tooltips="1" connect="1" arrows="1" fold="1" page="1" pageScale="1" pageWidth="1654" pageHeight="1169" background="#ffffff" math="0" shadow="0">
            <root>
                <mxCell id="0"/>
                <mxCell id="1" parent="0"/>
                <mxCell id="82" value="-" style="ellipse;whiteSpace=wrap;html=1;aspect=fixed;fontSize=27;fillColor=#fad7ac;strokeColor=#b46504;" parent="1" vertex="1">
                    <mxGeometry x="248" y="-78" width="1556" height="1556" as="geometry"/>
                </mxCell>
                <mxCell id="30" value="" style="ellipse;whiteSpace=wrap;html=1;aspect=fixed;fontSize=34;fillColor=#b1ddf0;strokeColor=#10739e;" parent="1" vertex="1">
                    <mxGeometry x="-1266" y="-276.99999999999994" width="1682" height="1682" as="geometry"/>
                </mxCell>
                <mxCell id="22" value="" style="shape=ext;double=1;rounded=1;whiteSpace=wrap;html=1;fontSize=10;verticalAlign=middle;fillColor=#60a917;fontColor=#ffffff;strokeColor=#2D7600;" parent="1" vertex="1">
                    <mxGeometry x="-107" y="791" width="384" height="207" as="geometry"/>
                </mxCell>
                <mxCell id="20" value="" style="shape=ext;double=1;rounded=1;whiteSpace=wrap;html=1;fontSize=10;verticalAlign=middle;fillColor=#1ba1e2;fontColor=#ffffff;strokeColor=#006EAF;" parent="1" vertex="1">
                    <mxGeometry x="-521" y="785" width="372" height="205" as="geometry"/>
                </mxCell>
                <mxCell id="19" value="" style="shape=ext;double=1;rounded=1;whiteSpace=wrap;html=1;fontSize=10;verticalAlign=middle;fillColor=#d80073;fontColor=#ffffff;strokeColor=#A50040;" parent="1" vertex="1">
                    <mxGeometry x="-246" y="113" width="404" height="229" as="geometry"/>
                </mxCell>
                <mxCell id="4" value="" style="shape=mxgraph.cisco.computers_and_peripherals.pc;html=1;pointerEvents=1;dashed=0;fillColor=#036897;strokeColor=#ffffff;strokeWidth=2;verticalLabelPosition=bottom;verticalAlign=top;align=center;outlineConnect=0;fontSize=10;" parent="1" vertex="1">
                    <mxGeometry x="-456" y="885" width="87" height="79" as="geometry"/>
                </mxCell>
                <mxCell id="8" value="" style="verticalLabelPosition=bottom;sketch=0;aspect=fixed;html=1;verticalAlign=top;strokeColor=none;align=center;outlineConnect=0;shape=mxgraph.citrix.dhcp_server;fontSize=10;" parent="1" vertex="1">
                    <mxGeometry x="-586" y="535.79" width="102.99" height="121.96" as="geometry"/>
                </mxCell>
                <mxCell id="60" style="edgeStyle=none;html=1;fontSize=27;fontColor=#000000;strokeWidth=3;fillColor=#0050ef;strokeColor=#001DBC;" parent="1" source="10" target="8" edge="1">
                    <mxGeometry relative="1" as="geometry"/>
                </mxCell>
                <mxCell id="77" style="edgeStyle=none;html=1;fontSize=27;fontColor=#000000;strokeWidth=3;fillColor=#0050ef;strokeColor=#001DBC;" parent="1" source="10" target="11" edge="1">
                    <mxGeometry relative="1" as="geometry"/>
                </mxCell>
                <mxCell id="140" style="edgeStyle=none;html=1;fontSize=26;fontColor=#000000;strokeWidth=3;fillColor=#0050ef;strokeColor=#001DBC;" parent="1" source="10" target="121" edge="1">
                    <mxGeometry relative="1" as="geometry"/>
                </mxCell>
                <mxCell id="143" style="edgeStyle=none;html=1;fontSize=26;fontColor=#000000;strokeWidth=3;fillColor=#0050ef;strokeColor=#001DBC;" parent="1" source="10" target="120" edge="1">
                    <mxGeometry relative="1" as="geometry"/>
                </mxCell>
                <mxCell id="10" value="" style="shape=mxgraph.cisco.switches.workgroup_switch;html=1;pointerEvents=1;dashed=0;fillColor=#036897;strokeColor=#ffffff;strokeWidth=2;verticalLabelPosition=bottom;verticalAlign=top;align=center;outlineConnect=0;fontSize=10;" parent="1" vertex="1">
                    <mxGeometry x="-161" y="544.4" width="216" height="108.75" as="geometry"/>
                </mxCell>
                <mxCell id="78" style="edgeStyle=none;html=1;fontSize=27;fontColor=#000000;strokeWidth=3;fillColor=#0050ef;strokeColor=#001DBC;startArrow=none;" parent="1" source="154" target="10" edge="1">
                    <mxGeometry relative="1" as="geometry"/>
                </mxCell>
                <mxCell id="90" style="edgeStyle=none;html=1;fontSize=27;fontColor=#000000;strokeWidth=3;fillColor=#0050ef;strokeColor=#001DBC;" parent="1" source="11" target="13" edge="1">
                    <mxGeometry relative="1" as="geometry"/>
                </mxCell>
                <mxCell id="11" value="" style="shape=mxgraph.cisco.routers.router;sketch=0;html=1;pointerEvents=1;dashed=0;fillColor=#036897;strokeColor=#ffffff;strokeWidth=2;verticalLabelPosition=bottom;verticalAlign=top;align=center;outlineConnect=0;fontSize=10;" parent="1" vertex="1">
                    <mxGeometry x="355" y="505.63" width="167" height="89.5" as="geometry"/>
                </mxCell>
                <mxCell id="87" style="edgeStyle=none;html=1;fontSize=27;fontColor=#000000;strokeWidth=3;fillColor=#0050ef;strokeColor=#001DBC;" parent="1" source="13" target="23" edge="1">
                    <mxGeometry relative="1" as="geometry"/>
                </mxCell>
                <mxCell id="88" style="edgeStyle=none;html=1;fontSize=27;fontColor=#000000;strokeWidth=3;fillColor=#0050ef;strokeColor=#001DBC;" parent="1" source="13" target="14" edge="1">
                    <mxGeometry relative="1" as="geometry"/>
                </mxCell>
                <mxCell id="91" style="edgeStyle=none;html=1;fontSize=27;fontColor=#000000;strokeWidth=3;fillColor=#0050ef;strokeColor=#001DBC;" parent="1" source="13" target="11" edge="1">
                    <mxGeometry relative="1" as="geometry"/>
                </mxCell>
                <mxCell id="13" value="" style="shape=mxgraph.cisco.switches.workgroup_switch;html=1;pointerEvents=1;dashed=0;fillColor=#036897;strokeColor=#ffffff;strokeWidth=2;verticalLabelPosition=bottom;verticalAlign=top;align=center;outlineConnect=0;fontSize=10;" parent="1" vertex="1">
                    <mxGeometry x="720" y="498.5" width="198.46" height="96.63" as="geometry"/>
                </mxCell>
                <mxCell id="89" style="edgeStyle=none;html=1;fontSize=27;fontColor=#000000;strokeWidth=3;fillColor=#0050ef;strokeColor=#001DBC;" parent="1" source="14" target="13" edge="1">
                    <mxGeometry relative="1" as="geometry"/>
                </mxCell>
                <mxCell id="14" value="" style="verticalLabelPosition=bottom;sketch=0;aspect=fixed;html=1;verticalAlign=top;strokeColor=none;align=center;outlineConnect=0;shape=mxgraph.citrix.dhcp_server;fontSize=10;" parent="1" vertex="1">
                    <mxGeometry x="764" y="196" width="116.54" height="138" as="geometry"/>
                </mxCell>
                <mxCell id="86" style="edgeStyle=none;html=1;fontSize=27;fontColor=#000000;strokeWidth=3;fillColor=#0050ef;strokeColor=#001DBC;" parent="1" source="23" target="13" edge="1">
                    <mxGeometry relative="1" as="geometry"/>
                </mxCell>
                <mxCell id="23" value="" style="shape=mxgraph.cisco.security.router_firewall;html=1;pointerEvents=1;dashed=0;fillColor=#036897;strokeColor=#ffffff;strokeWidth=2;verticalLabelPosition=bottom;verticalAlign=top;align=center;outlineConnect=0;fontSize=49;" parent="1" vertex="1">
                    <mxGeometry x="1230" y="494.37" width="197" height="112" as="geometry"/>
                </mxCell>
                <mxCell id="26" value="Vlan 20 :&lt;br&gt;Commerciaux&lt;span style=&quot;color: rgba(0 , 0 , 0 , 0) ; font-family: monospace ; font-size: 0px ; font-weight: 400&quot;&gt;%3CmxGraphModel%3E%3Croot%3E%3CmxCell%20id%3D%220%22%2F%3E%3CmxCell%20id%3D%221%22%20parent%3D%220%22%2F%3E%3CmxCell%20id%3D%222%22%20value%3D%22Vlan%2010%20%3A%26lt%3Bbr%26gt%3BAdministratifs%22%20style%3D%22text%3BstrokeColor%3Dnone%3BfillColor%3Dnone%3Bhtml%3D1%3BfontSize%3D24%3BfontStyle%3D1%3BverticalAlign%3Dmiddle%3Balign%3Dcenter%3B%22%20vertex%3D%221%22%20parent%3D%221%22%3E%3CmxGeometry%20x%3D%2239%22%20y%3D%22732%22%20width%3D%22200%22%20height%3D%2249%22%20as%3D%22geometry%22%2F%3E%3C%2FmxCell%3E%3C%2Froot%3E%3C%2FmxGraphModel%3E&lt;/span&gt;" style="text;strokeColor=none;fillColor=none;html=1;fontSize=24;fontStyle=1;verticalAlign=middle;align=center;" parent="1" vertex="1">
                    <mxGeometry x="-433" y="798" width="200" height="49" as="geometry"/>
                </mxCell>
                <mxCell id="42" value="" style="shape=mxgraph.cisco.computers_and_peripherals.pc;html=1;pointerEvents=1;dashed=0;fillColor=#036897;strokeColor=#ffffff;strokeWidth=2;verticalLabelPosition=bottom;verticalAlign=top;align=center;outlineConnect=0;fontSize=10;" parent="1" vertex="1">
                    <mxGeometry x="126" y="854" width="102" height="86" as="geometry"/>
                </mxCell>
                <mxCell id="43" value="" style="shape=mxgraph.cisco.computers_and_peripherals.pc;html=1;pointerEvents=1;dashed=0;fillColor=#036897;strokeColor=#ffffff;strokeWidth=2;verticalLabelPosition=bottom;verticalAlign=top;align=center;outlineConnect=0;fontSize=10;" parent="1" vertex="1">
                    <mxGeometry x="-51" y="859" width="98" height="81" as="geometry"/>
                </mxCell>
                <mxCell id="51" value="" style="shape=mxgraph.cisco.computers_and_peripherals.pc;html=1;pointerEvents=1;dashed=0;fillColor=#036897;strokeColor=#ffffff;strokeWidth=2;verticalLabelPosition=bottom;verticalAlign=top;align=center;outlineConnect=0;fontSize=10;" parent="1" vertex="1">
                    <mxGeometry y="200" width="87" height="78" as="geometry"/>
                </mxCell>
                <mxCell id="52" value="" style="shape=mxgraph.cisco.computers_and_peripherals.pc;html=1;pointerEvents=1;dashed=0;fillColor=#036897;strokeColor=#ffffff;strokeWidth=2;verticalLabelPosition=bottom;verticalAlign=top;align=center;outlineConnect=0;fontSize=10;" parent="1" vertex="1">
                    <mxGeometry x="-204" y="201.5" width="93" height="75" as="geometry"/>
                </mxCell>
                <mxCell id="53" value="Vlan 30 :&lt;br&gt;Service Informatique" style="text;strokeColor=none;fillColor=none;html=1;fontSize=24;fontStyle=1;verticalAlign=middle;align=center;" parent="1" vertex="1">
                    <mxGeometry x="-149" y="122" width="200" height="49" as="geometry"/>
                </mxCell>
                <mxCell id="55" value="&lt;font style=&quot;font-size: 27px&quot; color=&quot;#000000&quot;&gt;Réseau virtualisé (GNS3)&lt;/font&gt;" style="text;strokeColor=none;fillColor=none;html=1;fontSize=24;fontStyle=1;verticalAlign=middle;align=center;" parent="1" vertex="1">
                    <mxGeometry x="-196" y="29" width="100" height="40" as="geometry"/>
                </mxCell>
                <mxCell id="56" value="Réseau local :&lt;br style=&quot;font-size: 28px&quot;&gt;192.168.0.0/24" style="text;strokeColor=#996185;fillColor=#e6d0de;html=1;fontSize=28;fontStyle=1;verticalAlign=middle;align=center;gradientColor=#d5739d;" parent="1" vertex="1">
                    <mxGeometry x="-570" y="138" width="236" height="96" as="geometry"/>
                </mxCell>
                <mxCell id="64" value="&lt;br style=&quot;font-size: 26px&quot;&gt;Serveur Web" style="text;strokeColor=none;fillColor=none;html=1;fontSize=26;fontStyle=1;verticalAlign=middle;align=center;fontColor=#000000;" parent="1" vertex="1">
                    <mxGeometry x="-649" y="473" width="200" height="49" as="geometry"/>
                </mxCell>
                <mxCell id="25" value="Vlan 10 :&lt;br&gt;Administratifs" style="text;strokeColor=none;fillColor=none;html=1;fontSize=24;fontStyle=1;verticalAlign=middle;align=center;" parent="1" vertex="1">
                    <mxGeometry x="-15" y="802" width="200" height="49" as="geometry"/>
                </mxCell>
                <mxCell id="69" value=".30.1" style="text;strokeColor=#666666;fillColor=#f5f5f5;html=1;fontSize=24;fontStyle=1;verticalAlign=middle;align=center;fontColor=#333333;" parent="1" vertex="1">
                    <mxGeometry x="-211" y="295" width="100" height="39" as="geometry"/>
                </mxCell>
                <mxCell id="70" value=".30.2" style="text;strokeColor=#666666;fillColor=#f5f5f5;html=1;fontSize=24;fontStyle=1;verticalAlign=middle;align=center;fontColor=#333333;" parent="1" vertex="1">
                    <mxGeometry x="-6.5" y="295" width="100" height="39" as="geometry"/>
                </mxCell>
                <mxCell id="71" value=".10.2" style="text;strokeColor=#666666;fillColor=#f5f5f5;html=1;fontSize=24;fontStyle=1;verticalAlign=middle;align=center;fontColor=#333333;" parent="1" vertex="1">
                    <mxGeometry x="126" y="951" width="100" height="39" as="geometry"/>
                </mxCell>
                <mxCell id="72" value=".10.1" style="text;strokeColor=#666666;fillColor=#f5f5f5;html=1;fontSize=24;fontStyle=1;verticalAlign=middle;align=center;fontColor=#333333;" parent="1" vertex="1">
                    <mxGeometry x="-58" y="951" width="100" height="39" as="geometry"/>
                </mxCell>
                <mxCell id="75" value=".40.1" style="text;strokeColor=#666666;fillColor=#f5f5f5;html=1;fontSize=24;fontStyle=1;verticalAlign=middle;align=center;fontColor=#333333;" parent="1" vertex="1">
                    <mxGeometry x="-586" y="668" width="100" height="39" as="geometry"/>
                </mxCell>
                <mxCell id="79" value=".255.254" style="text;strokeColor=#666666;fillColor=#f5f5f5;html=1;fontSize=24;fontStyle=1;verticalAlign=middle;align=center;fontColor=#333333;" parent="1" vertex="1">
                    <mxGeometry x="292" y="663.15" width="100" height="39" as="geometry"/>
                </mxCell>
                <mxCell id="83" value="&lt;font style=&quot;font-size: 30px;&quot; color=&quot;#000000&quot;&gt;Réseau physique :&amp;nbsp;&lt;br style=&quot;font-size: 30px;&quot;&gt;DMZ&lt;br style=&quot;font-size: 30px;&quot;&gt;&lt;/font&gt;" style="text;strokeColor=none;fillColor=none;html=1;fontSize=30;fontStyle=1;verticalAlign=middle;align=center;" parent="1" vertex="1">
                    <mxGeometry x="716" y="30" width="130" height="40" as="geometry"/>
                </mxCell>
                <mxCell id="99" value=".150.50" style="text;strokeColor=#666666;fillColor=#f5f5f5;html=1;fontSize=24;fontStyle=1;verticalAlign=middle;align=center;fontColor=#333333;" parent="1" vertex="1">
                    <mxGeometry x="1335" y="434" width="100" height="39" as="geometry"/>
                </mxCell>
                <mxCell id="100" value="Réseau :&lt;br&gt;172.16.0.0/29" style="text;strokeColor=#996185;fillColor=#e6d0de;html=1;fontSize=28;fontStyle=1;verticalAlign=middle;align=center;gradientColor=#d5739d;" parent="1" vertex="1">
                    <mxGeometry x="403" y="144" width="237" height="101" as="geometry"/>
                </mxCell>
                <mxCell id="102" value=".3" style="text;strokeColor=#666666;fillColor=#f5f5f5;html=1;fontSize=24;fontStyle=1;verticalAlign=middle;align=center;fontColor=#333333;" parent="1" vertex="1">
                    <mxGeometry x="1112" y="577" width="100" height="39" as="geometry"/>
                </mxCell>
                <mxCell id="103" value=".2" style="text;strokeColor=#666666;fillColor=#f5f5f5;html=1;fontSize=24;fontStyle=1;verticalAlign=middle;align=center;fontColor=#333333;" parent="1" vertex="1">
                    <mxGeometry x="868" y="336" width="100" height="39" as="geometry"/>
                </mxCell>
                <mxCell id="104" value=".1" style="text;strokeColor=#666666;fillColor=#f5f5f5;html=1;fontSize=24;fontStyle=1;verticalAlign=middle;align=center;fontColor=#333333;" parent="1" vertex="1">
                    <mxGeometry x="489" y="663.15" width="100" height="39" as="geometry"/>
                </mxCell>
                <mxCell id="105" value="DNS + Web" style="text;html=1;fontSize=24;fontStyle=1;verticalAlign=middle;align=center;fontColor=#000000;" parent="1" vertex="1">
                    <mxGeometry x="710" y="141" width="200" height="49" as="geometry"/>
                </mxCell>
                <mxCell id="106" value="Routeur + Firewall&lt;br&gt;Mikrotik" style="text;html=1;fontSize=24;fontStyle=1;verticalAlign=middle;align=center;fontColor=#000000;labelBackgroundColor=#FFFFCC;" parent="1" vertex="1">
                    <mxGeometry x="1230" y="621" width="200" height="49" as="geometry"/>
                </mxCell>
                <mxCell id="110" value="DNS + Web" style="text;html=1;fontSize=26;fontStyle=1;verticalAlign=middle;align=center;fontColor=#000000;labelBackgroundColor=#FFFFCC;" parent="1" vertex="1">
                    <mxGeometry x="706.17" y="147" width="200" height="49" as="geometry"/>
                </mxCell>
                <mxCell id="111" value="Routeur Cisco&lt;br&gt;/ DHCP" style="text;html=1;fontSize=24;fontStyle=1;verticalAlign=middle;align=center;fontColor=#000000;labelBackgroundColor=#FFFFCC;" parent="1" vertex="1">
                    <mxGeometry x="327" y="606.37" width="200" height="49" as="geometry"/>
                </mxCell>
                <mxCell id="117" value="Switch Principal" style="text;html=1;fontSize=24;fontStyle=1;verticalAlign=middle;align=center;fontColor=#000000;labelBackgroundColor=#FFFFCC;" parent="1" vertex="1">
                    <mxGeometry x="-155" y="653.15" width="200" height="49" as="geometry"/>
                </mxCell>
                <mxCell id="119" style="edgeStyle=none;html=1;exitX=0.5;exitY=1;exitDx=0;exitDy=0;entryX=0.75;entryY=0;entryDx=0;entryDy=0;" parent="1" source="75" target="75" edge="1">
                    <mxGeometry relative="1" as="geometry"/>
                </mxCell>
                <mxCell id="144" style="edgeStyle=none;html=1;fontSize=26;fontColor=#000000;strokeWidth=3;fillColor=#0050ef;strokeColor=#001DBC;" parent="1" source="120" target="130" edge="1">
                    <mxGeometry relative="1" as="geometry"/>
                </mxCell>
                <mxCell id="145" style="edgeStyle=none;html=1;fontSize=26;fontColor=#000000;strokeWidth=3;fillColor=#0050ef;strokeColor=#001DBC;" parent="1" source="120" target="4" edge="1">
                    <mxGeometry relative="1" as="geometry"/>
                </mxCell>
                <mxCell id="120" value="" style="shape=mxgraph.cisco.switches.workgroup_switch;html=1;pointerEvents=1;dashed=0;fillColor=#036897;strokeColor=#ffffff;strokeWidth=2;verticalLabelPosition=bottom;verticalAlign=top;align=center;outlineConnect=0;fontSize=10;" parent="1" vertex="1">
                    <mxGeometry x="-382" y="678" width="136" height="71" as="geometry"/>
                </mxCell>
                <mxCell id="141" style="edgeStyle=none;html=1;fontSize=26;fontColor=#000000;strokeWidth=3;fillColor=#0050ef;strokeColor=#001DBC;" parent="1" source="121" target="43" edge="1">
                    <mxGeometry relative="1" as="geometry"/>
                </mxCell>
                <mxCell id="142" style="edgeStyle=none;html=1;fontSize=26;fontColor=#000000;strokeWidth=3;fillColor=#0050ef;strokeColor=#001DBC;" parent="1" source="121" target="42" edge="1">
                    <mxGeometry relative="1" as="geometry"/>
                </mxCell>
                <mxCell id="121" value="" style="shape=mxgraph.cisco.switches.workgroup_switch;html=1;pointerEvents=1;dashed=0;fillColor=#036897;strokeColor=#ffffff;strokeWidth=2;verticalLabelPosition=bottom;verticalAlign=top;align=center;outlineConnect=0;fontSize=10;" parent="1" vertex="1">
                    <mxGeometry x="81" y="686" width="136" height="71" as="geometry"/>
                </mxCell>
                <mxCell id="137" style="edgeStyle=none;html=1;fontSize=26;fontColor=#000000;fillColor=#0050ef;strokeColor=#001DBC;strokeWidth=3;" parent="1" source="129" target="10" edge="1">
                    <mxGeometry relative="1" as="geometry"/>
                </mxCell>
                <mxCell id="138" style="edgeStyle=none;html=1;fontSize=26;fontColor=#000000;strokeWidth=3;fillColor=#0050ef;strokeColor=#001DBC;" parent="1" source="129" target="51" edge="1">
                    <mxGeometry relative="1" as="geometry"/>
                </mxCell>
                <mxCell id="139" style="edgeStyle=none;html=1;fontSize=26;fontColor=#000000;strokeWidth=3;fillColor=#0050ef;strokeColor=#001DBC;" parent="1" source="129" target="52" edge="1">
                    <mxGeometry relative="1" as="geometry"/>
                </mxCell>
                <mxCell id="129" value="" style="shape=mxgraph.cisco.switches.workgroup_switch;html=1;pointerEvents=1;dashed=0;fillColor=#036897;strokeColor=#ffffff;strokeWidth=2;verticalLabelPosition=bottom;verticalAlign=top;align=center;outlineConnect=0;fontSize=10;" parent="1" vertex="1">
                    <mxGeometry x="-133" y="392" width="156" height="81" as="geometry"/>
                </mxCell>
                <mxCell id="130" value="" style="shape=mxgraph.cisco.computers_and_peripherals.pc;html=1;pointerEvents=1;dashed=0;fillColor=#036897;strokeColor=#ffffff;strokeWidth=2;verticalLabelPosition=bottom;verticalAlign=top;align=center;outlineConnect=0;fontSize=10;" parent="1" vertex="1">
                    <mxGeometry x="-299" y="885" width="90" height="76" as="geometry"/>
                </mxCell>
                <mxCell id="131" value=".20.2" style="text;strokeColor=#666666;fillColor=#f5f5f5;html=1;fontSize=24;fontStyle=1;verticalAlign=middle;align=center;fontColor=#333333;" parent="1" vertex="1">
                    <mxGeometry x="-309" y="976" width="100" height="39" as="geometry"/>
                </mxCell>
                <mxCell id="132" value=".20.1" style="text;strokeColor=#666666;fillColor=#f5f5f5;html=1;fontSize=24;fontStyle=1;verticalAlign=middle;align=center;fontColor=#333333;" parent="1" vertex="1">
                    <mxGeometry x="-472" y="976" width="100" height="39" as="geometry"/>
                </mxCell>
                <mxCell id="146" value="" style="shape=flexArrow;endArrow=classic;html=1;" edge="1" parent="1">
                    <mxGeometry width="50" height="50" relative="1" as="geometry">
                        <mxPoint x="534" y="616" as="sourcePoint"/>
                        <mxPoint x="584" y="566" as="targetPoint"/>
                    </mxGeometry>
                </mxCell>
                <mxCell id="148" value="" style="shape=flexArrow;endArrow=classic;html=1;fillColor=#d80073;strokeColor=#A50040;" edge="1" parent="1">
                    <mxGeometry width="50" height="50" relative="1" as="geometry">
                        <mxPoint x="42" y="621" as="sourcePoint"/>
                        <mxPoint x="274" y="621" as="targetPoint"/>
                    </mxGeometry>
                </mxCell>
                <mxCell id="151" value="" style="shape=flexArrow;endArrow=classic;html=1;fontSize=24;fontColor=#000000;fillColor=#008a00;strokeColor=#005700;" edge="1" parent="1">
                    <mxGeometry width="50" height="50" relative="1" as="geometry">
                        <mxPoint x="668" y="608.9599999999999" as="sourcePoint"/>
                        <mxPoint x="933" y="608.9599999999999" as="targetPoint"/>
                    </mxGeometry>
                </mxCell>
                <mxCell id="155" value="" style="rounded=0;whiteSpace=wrap;html=1;fontSize=24;fontColor=#ffffff;fillColor=#76608a;strokeColor=#432D57;" vertex="1" parent="1">
                    <mxGeometry x="553" y="505.63" width="528" height="90.5" as="geometry"/>
                </mxCell>
                <mxCell id="152" value="&lt;b&gt;&lt;font style=&quot;font-size: 24px&quot;&gt;L'adresse se retrouve transformée&lt;br&gt;devenant une adresse du réseau de la DMZ&lt;br&gt;172.16.0.4/29&lt;br&gt;&lt;/font&gt;&lt;/b&gt;" style="text;html=1;align=center;verticalAlign=middle;resizable=0;points=[];autosize=1;strokeColor=none;fillColor=none;fontColor=#FFFFFF;" vertex="1" parent="1">
                    <mxGeometry x="564" y="520.6299999999999" width="502" height="58" as="geometry"/>
                </mxCell>
                <mxCell id="154" value="" style="rounded=0;whiteSpace=wrap;html=1;fontSize=24;fontColor=#ffffff;fillColor=#6d8764;strokeColor=#3A5431;" vertex="1" parent="1">
                    <mxGeometry x="-35" y="500.07" width="357" height="93.5" as="geometry"/>
                </mxCell>
                <mxCell id="156" value="" style="edgeStyle=none;html=1;fontSize=27;fontColor=#000000;strokeWidth=3;fillColor=#0050ef;strokeColor=#001DBC;endArrow=none;" edge="1" parent="1" source="11" target="154">
                    <mxGeometry relative="1" as="geometry">
                        <mxPoint x="355" y="558.6017344862671" as="sourcePoint"/>
                        <mxPoint x="55" y="588.1409003051886" as="targetPoint"/>
                    </mxGeometry>
                </mxCell>
                <mxCell id="150" value="&lt;b&gt;&lt;font style=&quot;font-size: 24px&quot;&gt;Adresse venant du VLAN10&amp;nbsp;&lt;br&gt;Sous la forme 192.168.10.0/24&lt;br&gt;&lt;/font&gt;&lt;/b&gt;" style="text;html=1;align=center;verticalAlign=middle;resizable=0;points=[];autosize=1;strokeColor=none;fillColor=none;fontColor=#FFFFFF;" vertex="1" parent="1">
                    <mxGeometry x="-27" y="526.82" width="349" height="40" as="geometry"/>
                </mxCell>
            </root>
        </mxGraphModel>
    </diagram>
</mxfile>